<svg width="907" height="372" viewBox="0 0 907 372" fill="none" xmlns="http://www.w3.org/2000/svg">
<g clip-path="url(#clip0_581_2)">
<mask id="mask0_581_2" style="mask-type:luminance" maskUnits="userSpaceOnUse" x="-186" y="-454" width="1279" height="1280">
<path d="M1092.75 -453.375H-186V825.375H1092.75V-453.375Z" fill="white"/>
</mask>
<g mask="url(#mask0_581_2)">
<mask id="mask1_581_2" style="mask-type:luminance" maskUnits="userSpaceOnUse" x="0" y="0" width="907" height="372">
<path d="M906.75 0H0V372H906.75V0Z" fill="white"/>
</mask>
<g mask="url(#mask1_581_2)">
<path d="M401.896 -184.813L-450.442 207.104L504.857 556.781L1357.19 164.864L401.896 -184.813Z" fill="url(#paint0_linear_581_2)"/>
</g>
</g>
<path d="M786.895 126.672C786.975 126.29 787.035 125.899 787.086 125.507H763.399L758.826 149.053C755.258 167.494 751.691 185.945 747.993 204.386C746.174 213.401 741.923 220.767 735.33 226.314C728.878 231.731 721.663 234.364 713.251 234.364C710.96 234.364 708.618 234.173 706.076 233.781C695.735 232.204 689.544 225.922 688.197 215.632C687.685 211.793 687.825 207.612 688.579 203.562C692.197 184.337 695.946 165.112 699.694 145.897L703.674 125.466H679.816L675.665 146.741C672.148 164.781 668.631 182.82 665.204 200.859C664.148 206.426 663.626 210.848 663.556 214.788C663.214 234.776 671.796 247.64 689.072 252.996C694.961 254.825 701.282 255.75 707.854 255.75C713.653 255.75 719.763 255.026 726.014 253.609C741.43 250.102 753.661 241.469 762.354 227.942C767.097 220.566 770.243 212.285 772.262 201.904L786.875 126.682L786.895 126.672ZM605.79 253.057H629.025L653.817 125.507H630.583L605.79 253.057ZM604.383 125.507H582.957C571.109 155.947 541.935 179.795 510.198 184.739L521.715 125.456H498.45L473.658 253.037H496.923L506.048 206.074C515.313 204.959 524.438 202.567 533.212 199.09L557.19 253.046H583.972L554.969 187.774C577.511 173.031 595.64 150.902 604.383 125.527" fill="white"/>
<mask id="mask2_581_2" style="mask-type:luminance" maskUnits="userSpaceOnUse" x="121" y="166" width="103" height="75">
<path d="M128.272 167.957C127.367 168.499 126.543 169.152 125.82 169.916C120.905 175.052 120.715 182.8 121.508 189.453C122.423 197.07 125.83 204.236 130.01 210.577C141.156 227.511 157.858 239.731 178.46 240.615C186.128 240.937 194.228 239.098 201.604 236.997C207.413 235.349 212.427 233.159 218.095 230.676C219.643 230.003 221.452 229.048 222.949 228.285L223.09 228.214C214.89 221.632 206.89 215.33 198.69 208.758C190.479 202.186 182.279 195.613 174.048 189.061C166.119 182.74 158.18 176.408 149.396 171.293C145.216 168.861 139.819 166.258 134.673 166.258C132.442 166.258 130.262 166.751 128.252 167.957" fill="white"/>
</mask>
<g mask="url(#mask2_581_2)">
<path d="M175.469 115.188L83.4568 200.991L168.328 292.004L260.341 206.201L175.469 115.188Z" fill="url(#paint1_linear_581_2)"/>
</g>
<mask id="mask3_581_2" style="mask-type:luminance" maskUnits="userSpaceOnUse" x="114" y="83" width="338" height="171">
<path d="M297.247 242.525C295.106 242.454 292.976 242.334 290.845 242.153C274.846 240.806 259.068 236.264 243.752 228.606C262.595 216.496 284.574 199.442 310.603 176.72C318.904 169.474 327.808 161.494 337.073 152.982C341.656 148.772 346.138 144.591 350.49 140.531C368.599 123.617 384.246 109.005 398.436 100.905C412.606 92.8052 423.108 92.5841 432.475 100.162C436.846 103.96 440.082 110.613 440.414 120.03C440.836 131.386 437.047 146.782 425.972 166.067C413.923 187.051 395.522 206.195 374.146 219.963C351.133 234.797 325.918 242.575 301.005 242.575C299.749 242.575 298.503 242.555 297.257 242.515M393.01 91.4284C369.001 105.136 349.897 126.381 329.707 144.923C320.512 153.364 311.678 161.283 303.467 168.459C287.74 182.197 271.62 195.573 254.717 207.843C240.275 218.315 225.05 228.787 208.126 234.786C195.796 239.158 182.319 241.952 169.315 239.138C155.537 236.153 143.447 227.38 134.674 216.546C126.061 205.914 118.443 191.131 122.112 177.091C123.237 172.79 125.639 168.821 129.528 166.58C129.327 166.64 129.126 166.71 128.925 166.781C120.765 169.655 114.785 178.88 114.785 189.814C114.785 190.538 114.816 191.262 114.866 191.965C115.589 196.628 116.926 201.14 118.654 205.03C120.473 209.11 122.684 212.999 125.187 216.687C130.644 224.727 137.608 232.053 145.497 237.701C156.321 245.459 168.812 249.027 181.585 249.218C188.68 249.308 195.856 248.354 202.87 246.494C210.378 244.515 217.724 241.751 224.809 238.515L224.829 238.545C227.351 237.389 229.834 236.183 232.276 234.917C232.296 234.927 232.316 234.937 232.336 234.947C232.356 234.947 232.366 234.927 232.386 234.927C253.149 246.535 274.846 252.795 296.915 253.479C298.242 253.519 299.558 253.539 300.885 253.539C328.983 253.539 356.509 244.344 380.066 229.169C402.898 214.466 422.586 193.975 435.499 171.484C444.202 156.319 449.589 141.295 451.066 128.059C451.338 125.667 451.468 123.356 451.468 121.115C451.478 108.633 447.438 98.6038 439.59 91.8504L439.479 91.75C432.887 86.3835 425.741 83.7002 417.943 83.7002C410.305 83.7002 402.024 86.2729 393.01 91.4183" fill="white"/>
</mask>
<g mask="url(#mask3_581_2)">
<path d="M390.773 -45.7841L49.4913 114.302L175.516 382.968L516.797 222.883L390.773 -45.7841Z" fill="url(#paint2_linear_581_2)"/>
</g>
</g>
<defs>
<linearGradient id="paint0_linear_581_2" x1="-65.9038" y1="-4.83915" x2="261.913" y2="708.093" gradientUnits="userSpaceOnUse">
<stop stop-color="#160033"/>
<stop offset="0.15" stop-color="#160033"/>
<stop offset="0.6" stop-color="#540091"/>
<stop offset="0.96" stop-color="#E31D7D"/>
<stop offset="1" stop-color="#E31D7D"/>
</linearGradient>
<linearGradient id="paint1_linear_581_2" x1="204.347" y1="233.952" x2="135.119" y2="159.714" gradientUnits="userSpaceOnUse">
<stop stop-color="#540093"/>
<stop offset="0.28" stop-color="#8E56B7"/>
<stop offset="0.54" stop-color="#BE9ED6"/>
<stop offset="0.75" stop-color="#E1D2EC"/>
<stop offset="0.9" stop-color="#F6F2F9"/>
<stop offset="0.99" stop-color="white"/>
<stop offset="1" stop-color="white"/>
</linearGradient>
<linearGradient id="paint2_linear_581_2" x1="252.878" y1="118.139" x2="276.015" y2="167.464" gradientUnits="userSpaceOnUse">
<stop stop-color="#540093"/>
<stop offset="0.17" stop-color="#540093"/>
<stop offset="1" stop-color="white"/>
</linearGradient>
<clipPath id="clip0_581_2">
<rect width="906.75" height="372" rx="186" fill="white"/>
</clipPath>
</defs>
</svg>
