<?xml version="1.0" encoding="utf-8"?>
<!-- Generator: Adobe Illustrator 26.2.1, SVG Export Plug-In . SVG Version: 6.00 Build 0)  -->
<svg version="1.1" id="Capa_1" xmlns="http://www.w3.org/2000/svg" xmlns:xlink="http://www.w3.org/1999/xlink" x="0px" y="0px"
	 viewBox="0 0 640 171.2" style="enable-background:new 0 0 640 171.2;" xml:space="preserve">
<style type="text/css">
	.st0{fill:#4E2582;}
	
		.st1{clip-path:url(#SVGID_00000124156161778713746280000011359531237733951415_);fill:none;stroke:#5599D3;stroke-width:0.9903;stroke-linecap:round;stroke-linejoin:round;stroke-miterlimit:10;}
	.st2{fill:none;}
	.st3{fill:url(#SVGID_00000022540533435881045300000010090635617512673705_);}
	.st4{fill:url(#SVGID_00000087387940625585051780000000894505677199889080_);}
</style>
<g>
	<g>
		<path class="st0" d="M639,44.9c0.1-0.4,0.1-0.7,0.2-1.1h-22.5l-4.3,22.3c-3.4,17.5-6.8,35-10.3,52.5c-1.7,8.6-5.8,15.6-12,20.8
			c-6.1,5.1-13,7.6-21,7.6c-2.2,0-4.4-0.2-6.8-0.5c-9.8-1.5-15.7-7.5-17-17.2c-0.5-3.6-0.4-7.6,0.4-11.5c3.4-18.2,7-36.5,10.5-54.7
			l3.8-19.4h-22.6l-3.9,20.2c-3.3,17.1-6.7,34.2-9.9,51.4c-1,5.3-1.5,9.5-1.6,13.2c-0.3,19,7.8,31.2,24.2,36.3
			c5.6,1.7,11.6,2.6,17.8,2.6c0,0,0,0,0,0c5.5,0,11.3-0.7,17.2-2c14.6-3.3,26.2-11.5,34.5-24.4c4.5-7,7.5-14.9,9.4-24.7L639,44.9z
			 M467.1,164.8h22.1l23.5-121.1h-22.1L467.1,164.8z M465.8,43.8h-20.3c-11.2,28.9-38.9,51.5-69.1,56.2l10.9-56.3h-22.1l-23.5,121.1
			h22.1l8.7-44.6c8.8-1.1,17.5-3.3,25.8-6.6l22.8,51.2h25.4l-27.5-61.9C440.2,88.9,457.5,67.8,465.8,43.8z"/>
	</g>
	<g>
		<g>
			<defs>
				<path id="SVGID_1_" d="M173.5,154.2c-17.2-0.5-34.2-5-50.6-13.2c17.8-11.5,38.6-27.6,63.3-49.1c7.9-6.9,16.3-14.4,25.1-22.5
					c4.3-4,8.6-7.9,12.7-11.8c17.1-16,32-29.8,45.4-37.5c13.4-7.7,23.4-7.9,32.2-0.7c9.1,7.9,13,29-6.2,62.3
					c-11.4,19.9-28.8,38-49.1,51c-21.8,14-45.7,21.4-69.2,21.4C175.9,154.3,174.7,154.2,173.5,154.2 M264.2,11.1
					c-22.7,13-40.8,33.1-60,50.7c-8.7,8-17.1,15.5-24.9,22.3c-14.9,13-30.1,25.7-46.2,37.3c-9.5,6.9-19.4,13.7-29.9,19.1
					c-7.7-6.2-15.5-12.4-23.2-18.6c-7.8-6.2-15.5-12.5-23.3-18.7c-7.5-6-15-12-23.3-16.8c-4-2.3-9.1-4.8-14-4.8c0,0-0.1,0-0.1,0
					c-0.1,0-0.1,0-0.2,0c-0.1,0-0.1,0-0.2,0c-1.6,0-3.2,0.3-4.7,0.9C6.5,85.3,0.8,94,0.8,104.3c0,2.3,0.3,4.4,0.8,6.5
					c0,0.1,0,0.2,0.1,0.3c0.7,2.7,1.6,5.3,2.6,7.6c1.7,3.9,3.8,7.5,6.2,11c5.2,7.6,11.8,14.5,19.2,19.9c16,11.5,35.8,13.3,54.5,8.3
					c7.1-1.9,14.1-4.5,20.8-7.6l0,0c0,0,0,0,0,0c2.4-1.1,4.7-2.2,7-3.4c19.7,11,40.2,16.9,61.1,17.6c27.9,0.9,55.4-8,78.8-23
					c21.6-13.9,40.2-33.3,52.5-54.6c8.2-14.4,13.3-28.6,14.7-41.1c1.7-14.9-2.1-26.8-10.9-34.3l-0.1-0.1c-6.2-5.1-13-7.6-20.4-7.6
					C280.5,3.8,272.7,6.3,264.2,11.1"/>
			</defs>
			<clipPath id="SVGID_00000062880400933614986730000007687022478481869195_">
				<use xlink:href="#SVGID_1_"  style="overflow:visible;"/>
			</clipPath>
			
				<path style="clip-path:url(#SVGID_00000062880400933614986730000007687022478481869195_);fill:none;stroke:#5599D3;stroke-width:0.9903;stroke-linecap:round;stroke-linejoin:round;stroke-miterlimit:10;" d="
				M231.5-11.5c0.6,0,9.8,9.8,9.8,9.8"/>
			
				<path style="clip-path:url(#SVGID_00000062880400933614986730000007687022478481869195_);fill:none;stroke:#5599D3;stroke-width:0.9903;stroke-linecap:round;stroke-linejoin:round;stroke-miterlimit:10;" d="
				M241.3-11.5c0,0.6-9.8,9.8-9.8,9.8"/>
		</g>
		<g>
			<path class="st2" d="M173.6,154.2c1.2,0,2.4,0.1,3.6,0.1c23.6,0,47.4-7.4,69.2-21.4c20.2-13,37.7-31.2,49.1-51h0
				C306,63.4,309.5,48.7,309,37.9c-0.4-8.7-3.4-14.9-7.5-18.4c-8.9-7.2-18.8-7-32.2,0.7c-13.4,7.7-28.2,21.5-45.4,37.5
				c-4.1,3.8-8.4,7.8-12.7,11.8c-8.8,8.1-17.2,15.6-25.1,22.5c-24.6,21.5-45.4,37.6-63.3,49.1c14.5,7.3,29.5,11.6,44.7,12.8
				C169.6,154,171.6,154.2,173.6,154.2z"/>
			<path class="st0" d="M42.1,156.3c7,2.8,14.5,4.1,22,4.2c6.7,0.1,13.4-0.8,20-2.6c7.1-1.9,14.1-4.5,20.8-7.6l0,0c0,0,0,0,0,0
				c2.4-1.1,4.7-2.2,7-3.4c0,0,0,0,0.1,0c0,0,0,0,0,0c19.6,11,40.2,16.9,61.1,17.6c1.3,0,2.5,0.1,3.8,0.1c26.6,0,52.7-8.7,74.9-23.1
				c21.6-13.9,40.2-33.3,52.5-54.6c8.2-14.4,13.3-28.6,14.7-41.1c0.2-1.9,0.3-3.8,0.4-5.6c0.2-12.3-3.6-22.1-11.2-28.7l-0.1-0.1
				c-6.2-5.1-13-7.6-20.4-7.6c-7.2,0-15.1,2.4-23.6,7.3c-22.7,13-40.8,33.1-59.9,50.6c-8.7,8-17.1,15.5-24.8,22.3
				c-14.9,13-30.1,25.7-46.1,37.3c-13.7,9.9-28.1,19.8-44.1,25.5c-11.7,4.1-24.4,6.8-36.7,4.1c-1.3-0.3-2.7-0.6-4-1
				C46.6,152.3,44.4,154.4,42.1,156.3z M186.2,91.9c7.9-6.9,16.3-14.4,25.1-22.5c4.3-4,8.6-7.9,12.7-11.8c17.1-16,32-29.8,45.4-37.5
				c13.4-7.7,23.4-7.9,32.2-0.7c4.1,3.5,7.1,9.7,7.5,18.4c0.5,10.8-3.1,25.5-13.7,43.9h0c-11.4,19.9-28.8,38-49.1,51
				c-21.8,14-45.6,21.4-69.2,21.4c-1.2,0-2.4,0-3.6-0.1c-2-0.1-4-0.2-5.9-0.3c-15.2-1.3-30.2-5.6-44.7-12.8
				C140.8,129.6,161.6,113.4,186.2,91.9z"/>
			
				<linearGradient id="SVGID_00000062886751030215834440000014713053418632511616_" gradientUnits="userSpaceOnUse" x1="7.5083" y1="80.473" x2="29.603" y2="143.4094">
				<stop  offset="4.639950e-02" style="stop-color:#FFFFFF"/>
				<stop  offset="0.877" style="stop-color:#4E2582"/>
			</linearGradient>
			<path style="fill:url(#SVGID_00000062886751030215834440000014713053418632511616_);" d="M19.7,129.6
				c-8.2-10.1-15.4-24.1-11.9-37.3c1.1-4.1,3.3-7.8,7-9.9c-0.2,0.1-0.4,0.1-0.6,0.2C6.5,85.3,0.8,94,0.8,104.3c0,0.7,0,1.4,0.1,2
				c0.7,4.4,2,8.7,3.6,12.4c1.7,3.9,3.8,7.5,6.2,11c5.2,7.6,11.8,14.5,19.2,19.9c3.9,2.8,8,5,12.2,6.7c2.3-1.9,4.4-4.1,6.4-6.4
				C37.1,146.5,27.1,138.8,19.7,129.6z"/>
		</g>
		
			<linearGradient id="SVGID_00000075870344163692535950000017682947413812471190_" gradientUnits="userSpaceOnUse" x1="92.6204" y1="160.6447" x2="21.1882" y2="104.5195">
			<stop  offset="0" style="stop-color:#FFFFFF"/>
			<stop  offset="0.1901" style="stop-color:#D6CCE2"/>
			<stop  offset="0.4763" style="stop-color:#9C85B9"/>
			<stop  offset="0.7152" style="stop-color:#72519B"/>
			<stop  offset="0.8943" style="stop-color:#583189"/>
			<stop  offset="0.9931" style="stop-color:#4E2582"/>
		</linearGradient>
		<path style="fill:url(#SVGID_00000075870344163692535950000017682947413812471190_);" d="M13,83.1c-0.9,0.5-1.6,1.1-2.3,1.9
			C6,89.9,5.8,97.3,6.6,103.6c0.9,7.3,4.1,14.1,8.1,20.1c10.6,16.1,26.5,27.8,46.2,28.6c7.3,0.3,15-1.4,22.1-3.4
			c5.5-1.6,10.3-3.7,15.7-6c1.5-0.6,3.2-1.6,4.6-2.3l0.1-0.1c-7.8-6.3-15.4-12.3-23.3-18.5c-7.8-6.3-15.6-12.5-23.5-18.8
			c-7.6-6-15.1-12.1-23.5-16.9c-4-2.3-9.1-4.8-14-4.8C17,81.5,14.9,82,13,83.1"/>
	</g>
</g>
</svg>
